<svg xmlns="http://www.w3.org/2000/svg" width="128" height="128" viewBox="0 0 128 128">
    <g fill="none">
        <path fill="#F074C5" d="M128 128h-25.823l-3.75-3.75-3.75 3.75H33.322l-3.75-3.75-3.75 3.75H0c0-10.823 7.175-20.335 17.582-23.31l10.965-3.132L64 101.522l35.213-.035 11.205 3.203c5.202 1.487 9.6 4.61 12.694 8.713C126.206 117.505 128 122.59 128 128z"/>
        <path fill="#F5169C" d="M128 128h-25.823l-3.75-3.75-3.75 3.75H64v-26.478l35.213-.035 11.205 3.203c5.202 1.487 9.6 4.61 12.694 8.713C126.206 117.505 128 122.59 128 128z"/>
        <path fill="#FEBDA6" d="M99.213 101.487c-10.078 8.958-22.64 13.453-35.213 13.49-12.648.038-25.305-4.434-35.453-13.42l17.168-4.904 4.25-5.656h28.07l4.25 5.656 16.928 4.834z"/>
        <path fill="#FFAC94" d="M99.213 101.487c-10.078 8.958-22.64 13.453-35.213 13.49v-23.98h14.035l4.25 5.656 16.928 4.834z"/>
        <path fill="#F5169C" d="M25.822 117.333L33.322 117.333 33.322 128 25.822 128z"/>
        <path fill="#B31072" d="M94.678 117.333L102.178 117.333 102.178 128 94.678 128z"/>
        <path fill="#F074C5" d="M9.31 48.778v-7.5c14.495 0 20.389-9.403 20.632-9.803l6.449 3.83c-.325.55-8.155 13.473-27.081 13.473z"/>
        <path fill="#F5169C" d="M118.69 48.774c-18.925 0-26.756-12.923-27.08-13.474l6.448-3.83c.244.4 6.137 9.804 20.632 9.804v7.5z"/>
        <path fill="#363331" d="M30.447 31.401c-4.836.777-9.963-.7-13.691-4.427-6.17-6.17-6.17-16.175 0-22.346 6.17-6.17 16.175-6.17 22.346 0 1.157 1.157 2.097 2.449 2.82 3.825L30.447 31.4z"/>
        <path fill="#292725" d="M97.553 31.4c4.836.777 9.963-.698 13.691-4.426 6.17-6.171 6.17-16.176 0-22.346-6.17-6.17-16.175-6.17-22.346 0-1.17 1.17-2.12 2.48-2.846 3.874l11.5 22.899z"/>
        <path fill="#5C5655" d="M98.165 34.165V52.45h-68.33V34.165C29.835 15.295 45.132 0 64 0s34.165 15.295 34.165 34.165z"/>
        <path fill="#363331" d="M98.165 34.165V52.45H64V0c18.868 0 34.165 15.295 34.165 34.165z"/>
        <path fill="#FEBDA6" d="M36.586 48.28h-5.07c-6.421 0-11.627 5.205-11.627 11.626 0 6.421 5.205 11.627 11.627 11.627h9.565L36.586 48.28z"/>
        <path fill="#FFAC94" d="M91.409 48.28h5.07c6.422 0 11.627 5.205 11.627 11.626 0 6.421-5.205 11.627-11.626 11.627h-9.562L91.41 48.28z"/>
        <path fill="#FFCDC0" d="M91.41 48.28v17.75c0 1.88-.167 3.72-.49 5.502L64 75.535l-26.92-4.002c-.322-1.783-.49-3.623-.49-5.503V48.28C51.727 48.28 64 36.007 64 20.872 64 36.008 76.27 48.28 91.407 48.28h.003z"/>
        <path fill="#FEBDA6" d="M91.41 48.28v17.75c0 1.88-.167 3.72-.49 5.502L64 75.535V20.873C64 36.007 76.27 48.28 91.407 48.28h.003z"/>
        <path fill="#EDF9FF" d="M64 95.205c-13.37 0-24.505-10.19-26.92-23.672h12.875c3.165 0 6.223-1.13 8.628-3.186L64 63.717l5.418 16.761C71.822 82.534 71.57 95.206 64 95.206z"/>
        <path fill="#C0E1F0" d="M90.92 71.532c-1.045 5.85-3.735 11.08-7.538 15.128C78.42 91.94 71.57 95.205 64 95.205V63.718l5.418 4.63c2.404 2.055 5.462 3.184 8.627 3.184H90.92z"/>
    </g>
</svg>
